# xmcd CD database file
#
# Track frame offsets:
#	150
#	16353
#	29121
#	44268
#	57511
#	70352
#	86373
#	103307
#	117589
#	131379
#
# Disc length: 1893 seconds
#
# Revision: 3
# Processed by: cddbd v1.5.2PL0 Copyright (c) Steve Scherf et al.
# Submitted via: CDex 1.72
#
DISCID=9007630a
DTITLE=Robison, Bruce and Kelly Willis (USA-14-Our Year-cty) - Our Year
DYEAR=2014
DGENRE=Country
TTITLE0=Departing Louisiana
TTITLE1=Motor City Man
TTITLE2=Carousel
TTITLE3=Lonely for You
TTITLE4=A Hangin On
TTITLE5=Shake Yourself Loose
TTITLE6=Harper Valley PTA
TTITLE7=Anywhere But Here
TTITLE8=I'll Go To My Grave Loving You
TTITLE9=This Will Be Our Year
EXTD=YEAR: 2014
EXTT0=
EXTT1=
EXTT2=
EXTT3=
EXTT4=
EXTT5=
EXTT6=
EXTT7=
EXTT8=
EXTT9=
PLAYORDER=
